<?xml version="1.0" standalone="no"?>
<!DOCTYPE svg PUBLIC "-//W3C//DTD SVG 1.1//EN" "http://www.w3.org/Graphics/SVG/1.1/DTD/svg11.dtd" >
<svg xmlns="http://www.w3.org/2000/svg" xmlns:xlink="http://www.w3.org/1999/xlink" version="1.1">
<metadata></metadata>
<defs>
<font id="pslxolarnitalic" horiz-adv-x="0" >
<font-face units-per-em="2048" ascent="1638" descent="-410" />
<missing-glyph horiz-adv-x="524" />
<glyph unicode="&#xe4f;&#x22;" />
<glyph unicode="&#xe24;&#xe32;" horiz-adv-x="1458" d="M-20 0l71 408q10 53 76 88l-53 43l4 18q31 133 170 211q127 68 289 68q152 0 251 -58q113 -63 113 -178q0 -10 -1 -21.5t-3 -21.5l-141 -803h-328l139 793q16 78 -69 78q-72 0 -92 -64l43 -51q-57 -33 -68 -92l-45 -254h78l-29 -164h-405zM911 608l37 209q90 18 193 19 q147 0 233 -68t86 -197q0 -35 -6 -71l-131 -746h-328l115 658q2 14 3 27.5t1 25.5q0 152 -129 151q-35 0 -74 -8z" />
<glyph unicode="&#xe26;&#xe32;" horiz-adv-x="1497" d="M-61 0l28 164h82l43 244q10 53 76 88l-53 43l4 18q31 133 170 211q127 68 289 68q152 0 251 -58q113 -63 113 -178q0 -10 -1 -21.5t-3 -21.5l-141 -803h-328l139 793q16 78 -69 78q-72 0 -93 -64l43 -51q-57 -33 -67 -92l-74 -418h-409zM948 608l37 209q90 18 193 19 q147 0 233 -68t86 -197q0 -35 -6 -71l-131 -746h-328l115 658q2 14 3 27.5t1 25.5q0 152 -129 151q-35 0 -74 -8z" />
<glyph unicode="fi" />
<glyph unicode="fl" />
<glyph unicode=" "  horiz-adv-x="524" />
<glyph unicode="&#x09;" horiz-adv-x="524" />
<glyph unicode="&#xa0;" horiz-adv-x="524" />
<glyph unicode="!" horiz-adv-x="466" d="M6 0l53 301h330l-53 -301h-330zM143 774l41 232h330l-41 -232l-147 -391h-172z" />
<glyph unicode="&#x22;" horiz-adv-x="804" d="M119 453l90 512h256l-90 -512h-256zM467 453l90 512h256l-90 -512h-256z" />
<glyph unicode="#" horiz-adv-x="985" d="M53 238l64 196h116l25 78h-115l64 197h115l73 231h232l-76 -231h86l76 231h231l-76 -231h107l-64 -197h-104l-27 -78h105l-64 -196h-104l-76 -238h-231l77 238h-86l-75 -238h-232l76 238h-117zM463 434h86l26 78h-86z" />
<glyph unicode="$" horiz-adv-x="944" d="M8 285q0 16 1 32.5t3 32.5h338q-12 -106 45 -121l25 138q-25 6 -49.5 13t-46.5 15q-109 37 -160 78q-61 53 -62 137q0 27 7 54q29 154 157 241q115 78 262 86l19 105h121l-19 -105q303 -12 303 -268q0 -41 -8 -80h-305q8 74 -35 90l-16 -96q195 -47 274 -111 q66 -59 66 -149q0 -184 -135 -295q-127 -102 -322 -109l-25 -131h-120l24 131q-342 10 -342 312zM432 705q-4 -29 39 -43l14 77q-47 -4 -53 -34zM516 229q62 7 70 52q6 35 -51 55z" />
<glyph unicode="%" horiz-adv-x="1419" d="M139 616q0 31 6 68q47 270 310 270q223 0 223 -202q0 -33 -6 -68q-47 -268 -312 -268q-221 0 -221 200zM242 -35l757 1012h209l-759 -1012h-207zM358 610q0 -35 31 -35q33 0 45 37q0 2 12 72q13 72 13 74q0 35 -33 35q-31 0 -40 -36t-15 -73q-12 -70 -13 -74zM786 188 q0 35 7 68q47 270 309 270q221 0 221 -202q0 -33 -6 -68q-47 -268 -309 -268q-221 0 -222 200zM1004 182q0 -35 32 -35q31 0 43 37q4 16 6.5 35t6.5 37q4 20 6 33.5t4 23.5t4 21q0 33 -31 33q-33 0 -45 -37q-2 -4 -14 -76q-12 -68 -12 -72z" />
<glyph unicode="&#x26;" horiz-adv-x="1042" d="M31 240q0 29 6 59q29 156 248 268q-39 57 -39 123q0 125 121 215q109 82 241 82q291 0 291 -209q0 -12 -1 -25.5t-3 -27.5q-25 -141 -209 -244l29 -39q10 14 17 26.5t11 27.5h273q-59 -164 -156 -248l176 -250h-381l-37 57q-133 -78 -286 -78q-135 0 -218 72t-83 191z M340 291q-4 -27 13.5 -45.5t43.5 -18.5q35 0 82 33l-63 98q-70 -31 -76 -67zM530 729q-4 -29 29 -63q49 26 59 65q8 39 -34 39q-47 0 -54 -41z" />
<glyph unicode="'" horiz-adv-x="440" d="M113 453l90 512h254l-90 -512h-254z" />
<glyph unicode="(" horiz-adv-x="466" d="M37 162q0 104 20 213q59 324 265 612h282q-190 -315 -242 -612q-10 -63 -16 -121.5t-6 -116.5q0 -158 47 -364h-283q-68 205 -67 389z" />
<glyph unicode=")" horiz-adv-x="466" d="M-127 -227q184 293 240 602q25 135 24 252q0 78 -12 167t-35 193h283q66 -184 65 -379q0 -118 -20 -233q-51 -291 -258 -602h-287z" />
<glyph unicode="*" horiz-adv-x="667" d="M72 692l96 168l149 -49l27 154h199l-27 -152l164 47l39 -168l-172 -47l78 -119l-183 -116l-75 131l-127 -131l-140 116l129 119z" />
<glyph unicode="+" horiz-adv-x="942" d="M47 268l27 146h336l59 336h145l-59 -336h338l-27 -146h-338l-59 -338h-145l59 338h-336z" />
<glyph unicode="," horiz-adv-x="444" d="M-47 -244l27 150q94 10 126 74h-114l51 288h330l-39 -217q-41 -229 -234 -280q-49 -14 -147 -15z" />
<glyph unicode="-" horiz-adv-x="591" d="M43 260l37 201h473l-37 -201h-473z" />
<glyph unicode="." horiz-adv-x="444" d="M-4 0l47 268h330l-47 -268h-330z" />
<glyph unicode="/" horiz-adv-x="616" d="M-82 -23l576 1010h256l-574 -1010h-258z" />
<glyph unicode="0" horiz-adv-x="942" d="M57 348q0 59 13 123q43 248 211 377q133 104 297 104q143 0 237 -80q115 -96 115 -280q0 -29 -3 -58.5t-7 -62.5q-43 -252 -211 -379q-137 -102 -301 -102q-137 0 -234 78q-117 96 -117 280zM369 360q0 -121 84 -120q112 0 153 231q4 33 7 58.5t3 48.5q0 125 -81 124 q-111 0 -154 -231q-12 -63 -12 -111z" />
<glyph unicode="1" horiz-adv-x="942" d="M182 514l41 234q266 -8 314 192h270l-166 -940h-334l90 514h-215z" />
<glyph unicode="2" horiz-adv-x="942" d="M-20 0q25 164 114 260q33 35 78 70t104 69q20 10 70.5 38t134.5 71q39 20 58.5 29.5t21.5 11.5q45 31 51 65q16 80 -69 80q-125 0 -146 -180h-305q25 211 159 324.5t339 113.5q172 0 268 -63.5t96 -186.5q0 -26 -6 -57q-25 -137 -149 -231q-35 -27 -99.5 -63t-162.5 -83 h354l-47 -268h-864z" />
<glyph unicode="3" horiz-adv-x="942" d="M35 272q0 57 14 115h309l-6 -31q-8 -57 12.5 -83.5t88.5 -26.5q96 0 110 76q12 70 -84 69q-35 0 -65 -6l37 207q16 -2 31.5 -2h31.5q100 0 109 57q10 55 -80 55q-113 0 -123 -110h-307q33 190 174 280q129 80 303 80q180 0 276 -78q72 -61 72 -149q0 -74 -44 -133.5 t-114 -85.5l-2 -2q119 -39 119 -164q0 -170 -162 -268q-137 -82 -317 -82q-383 0 -383 282z" />
<glyph unicode="4" horiz-adv-x="942" d="M-4 176l49 277l547 487h307l-88 -494h127l-47 -270l-125 -2l-33 -174h-334l31 176h-434zM340 446h137l27 146z" />
<glyph unicode="5" horiz-adv-x="942" d="M6 256q0 35 10 76h312q4 -49 18 -62q31 -25 88 -24q45 0 83 25.5t44 64.5q16 98 -90 98q-78 0 -125 -55h-299l207 561h688l-43 -246h-477l-33 -90q111 53 223 53q125 0 201 -59q80 -63 80 -190q0 -41 -8 -80q-27 -150 -156 -242q-139 -96 -348 -96q-207 0 -301 88 q-74 68 -74 178z" />
<glyph unicode="6" horiz-adv-x="942" d="M59 334q0 25 3.5 50.5t7.5 53.5q41 231 176 367q145 147 364 147q319 0 328 -282h-299q-12 45 -76 45q-92 0 -135 -94q68 33 176 32q135 0 214 -66.5t79 -183.5q0 -29 -6 -59q-31 -170 -164 -266q-125 -88 -311 -88q-180 0 -275 100q-82 88 -82 244zM381 340 q-6 -41 15.5 -67.5t64.5 -26.5q49 0 84 26.5t41 67.5q6 39 -19.5 64.5t-72.5 25.5q-41 0 -74 -25.5t-39 -64.5z" />
<glyph unicode="7" horiz-adv-x="942" d="M139 674l47 266h777l-43 -242q-330 -256 -406 -698h-324q12 92 43 188q78 225 224 385q49 55 133 101h-451z" />
<glyph unicode="8" horiz-adv-x="942" d="M16 242q0 14 1 27.5t3 27.5q29 145 168 201q-66 43 -65 131q0 27 6 53q29 145 176 215q117 55 273 55q182 0 276 -69q86 -61 86 -162q0 -145 -131 -221q100 -49 100 -162q0 -10 -1 -20.5t-3 -20.5q-27 -154 -188 -238q-131 -70 -309 -69q-168 0 -271 55q-121 66 -121 197 zM344 299q-12 -72 107 -72q121 0 133 72q16 86 -105 86q-119 0 -135 -86zM420 653q-12 -63 92 -63q109 0 121 63q14 76 -94 76q-104 0 -119 -76z" />
<glyph unicode="9" horiz-adv-x="942" d="M47 270h299q16 -43 74 -43q86 0 139 97q-78 -39 -174 -39q-135 0 -216 64.5t-81 180.5q0 29 6 62q27 166 172 268q133 92 312 92q176 0 268 -100q84 -90 84 -244q0 -27 -3 -52t-7 -54q-39 -229 -179 -369q-143 -143 -364 -143q-319 0 -330 280zM399 600 q-6 -39 19.5 -65.5t68.5 -26.5q103 0 119 90q6 41 -16.5 68.5t-65.5 27.5t-80.5 -27.5t-44.5 -66.5z" />
<glyph unicode=":" horiz-adv-x="444" d="M-4 0l53 297h330l-53 -297h-330zM68 406l51 296h330l-52 -296h-329z" />
<glyph unicode=";" horiz-adv-x="444" d="M-45 -231l27 155q94 8 127 76h-113l53 297h330l-39 -221q-41 -231 -238 -291q-59 -16 -147 -16zM68 406l51 296h330l-52 -296h-329z" />
<glyph unicode="&#x3c;" horiz-adv-x="851" d="M43 248l33 186l778 260l-43 -245l-344 -107l305 -109l-43 -243z" />
<glyph unicode="=" horiz-adv-x="942" d="M23 125l24 145h819l-24 -145h-819zM72 412l26 145h820l-27 -145h-819z" />
<glyph unicode="&#x3e;" horiz-adv-x="851" d="M-2 -10l43 243l340 107l-301 109l43 245l686 -258l-35 -188z" />
<glyph unicode="?" horiz-adv-x="841" d="M76 643q100 352 463 352q176 0 264 -82q72 -66 71 -168q0 -119 -69 -188q-47 -43 -174 -102q-51 -20 -56 -29q-16 -16 -24 -64h-299q8 45 15 78t18 54q33 74 116 114q20 8 39 14.5t39 14.5q49 23 51 47q8 45 -41 45q-66 0 -81 -86h-332zM172 0l53 303h330l-53 -303h-330z " />
<glyph unicode="@" horiz-adv-x="1136" d="M76 387q0 23 2 46.5t6 47.5q41 225 221 369q174 137 400 137q197 0 311 -96q109 -92 108 -238q0 -30 -6 -65q-33 -203 -198 -316q-119 -82 -222 -82q-72 0 -63 68h-2q-51 -68 -156 -68q-88 0 -137 52.5t-49 138.5q0 135 102 250t240 114q102 0 158 -94l28 70h111 l-121 -315q-8 -27 -12 -48q-8 -45 22 -45q45 0 92 54q53 63 76 178q6 37 6 71q0 250 -313 250q-174 0 -307 -108q-133 -109 -164 -277q-6 -39 -6 -73q0 -141 98 -226q90 -82 240 -82q176 0 297 76h133q-172 -197 -453 -196q-201 0 -321 112q-121 115 -121 295zM467 451 q-8 -45 14.5 -79t67.5 -34q59 0 107.5 44t58.5 101q8 49 -17.5 82t-72.5 33q-27 0 -52.5 -12.5t-47 -31.5t-37 -46t-21.5 -57z" />
<glyph unicode="A" horiz-adv-x="997" d="M-86 0l537 965h317l193 -965h-359l-14 131h-264l-66 -131h-344zM444 375h113l-20 180z" />
<glyph unicode="B" horiz-adv-x="1021" d="M10 0l170 965h543q285 0 285 -205q0 -145 -123 -223q102 -59 102 -179q0 -27 -6 -57q-25 -139 -152 -223q-115 -78 -258 -78h-561zM397 264h148q86 0 98 66q1 7 1 13q0 46 -66 46h-160zM457 608h129q76 1 86 54v5q0 33 -66 33h-4h-129z" />
<glyph unicode="C" horiz-adv-x="1046" d="M59 375q0 27 3.5 53.5t7.5 54.5q39 225 200 365q164 139 392 139q382 0 382 -355q0 -26 -2 -54h-331v13q0 122 -107 122q-156 0 -194 -230q-8 -39 -9 -80q0 -151 121 -151h2q100 0 158 156h332q-31 -176 -170 -297q-152 -133 -361 -134q-203 0 -317 111 q-106 106 -107 287z" />
<glyph unicode="D" horiz-adv-x="1071" d="M10 0l170 965h502q195 0 293 -109q84 -94 84 -254q0 -29 -3 -58.5t-7 -60.5q-39 -223 -187 -352q-152 -131 -407 -131h-445zM399 283h90h2q179 0 218 204q2 10 3 22.5t1 22.5q0 150 -174 150h-68z" />
<glyph unicode="E" horiz-adv-x="974" d="M10 0l170 965h832l-49 -283h-492l-12 -66h446l-47 -266h-446l-13 -67h506l-49 -283h-846z" />
<glyph unicode="F" horiz-adv-x="876" d="M10 0l170 965h781l-50 -283h-440l-12 -66h379l-47 -266h-379l-62 -350h-340z" />
<glyph unicode="G" horiz-adv-x="1071" d="M59 371q0 25 2 50t7 52q45 254 229 395q156 119 350 119q387 0 397 -391h-333v13q0 104 -95 104q-115 0 -167 -103q-25 -47 -43 -143q-2 -14 -3.5 -27.5t-1.5 -27.5q0 -160 154 -160q82 0 125 55h-119l43 244h436l-96 -553h-231l4 65q-113 -86 -262 -86q-188 0 -295 113 q-100 106 -101 281z" />
<glyph unicode="H" horiz-adv-x="1046" d="M10 0l170 965h340l-55 -318h225l55 318h340l-170 -965h-340l64 365h-225l-64 -365h-340z" />
<glyph unicode="I" horiz-adv-x="483" d="M10 0l170 965h340l-170 -965h-340z" />
<glyph unicode="J" horiz-adv-x="849" d="M16 244q0 45 9 86l18 102h311l-12 -76q-4 -33 -7 -50t-3 -21q0 -41 43 -41q37 0 53 41q4 4 12 65l109 615h340l-107 -611q-35 -203 -142.5 -290t-305.5 -87q-317 0 -318 267z" />
<glyph unicode="K" horiz-adv-x="1071" d="M18 0l170 965h340l-49 -277l277 277h424l-437 -383l316 -582h-424l-164 342l-61 -57l-52 -285h-340z" />
<glyph unicode="L" horiz-adv-x="876" d="M10 0l170 965h340l-121 -682h418l-49 -283h-758z" />
<glyph unicode="M" horiz-adv-x="1292" d="M8 0l170 965h461l33 -463l196 463h461l-170 -965h-323l77 438l-198 -438h-260l-45 434l-76 -434h-326z" />
<glyph unicode="N" horiz-adv-x="1046" d="M10 0l170 965h340l162 -418l74 418h327l-170 -965h-325l-176 434l-76 -434h-326z" />
<glyph unicode="O" horiz-adv-x="1093" d="M59 377q0 27 3.5 52.5t7.5 53.5q41 221 202 363q164 141 390 141q98 0 177 -28.5t134 -82t84.5 -127t29.5 -163.5q0 -46 -10 -103q-39 -223 -205 -364q-162 -141 -389 -142q-98 0 -177 29t-133 81t-84 126t-30 164zM403 412q0 -160 129 -160q61 0 115 47q65 57 88 184 q6 41 6 72q0 158 -129 158q-164 0 -202 -230q-6 -39 -7 -71z" />
<glyph unicode="P" horiz-adv-x="974" d="M10 0l170 965h510q166 0 250 -91q70 -72 70 -188q0 -186 -140 -301q-125 -106 -321 -106h-150l-49 -279h-340zM446 543h89q59 0 90 10q45 14 53 65q2 8 2 16q0 30 -27 42q-18 6 -78 6h-104z" />
<glyph unicode="Q" horiz-adv-x="1093" d="M59 383q0 45 11 102q41 223 202 361q164 141 390 141q98 0 177 -28.5t134 -81t84.5 -126t29.5 -163.5q0 -46 -10 -103q-33 -180 -162 -317l99 -113l-195 -159l-108 131q-86 -43 -226 -43q-98 0 -177 28.5t-134 80.5t-85 126t-30 164zM403 416q0 -152 119 -160l-53 66 l195 155l51 -67q26 71 26 145q0 158 -129 158q-63 0 -114 -45q-66 -57 -88 -183q-6 -39 -7 -69z" />
<glyph unicode="R" horiz-adv-x="1021" d="M10 0l170 965h580q129 0 209 -60.5t80 -171.5q0 -84 -44 -163.5t-118 -120.5q75 -56 75 -194q0 -16 -1 -34q-2 -4 -3 -12v-15.5t-2 -21.5q-2 -20 -3 -36.5t-1 -31.5q0 -61 17 -104h-353q-4 33 -5 73v16q0 34 3 75q2 29 3 47t1 22q0 86 -79 86h-131l-58 -319h-340z M449 563h129q108 0 116 68q1 6 1 12q0 57 -106 57h-3h-113z" />
<glyph unicode="S" horiz-adv-x="923" d="M8 279q0 37 6 75h340q-6 -44 -6 -66v-9q8 -51 109 -52q98 0 106 62q2 27 -31 41q-35 10 -70.5 20t-70.5 21q-72 20 -121 39.5t-77 35.5q-94 61 -95 166q0 10 1 22.5t3 27.5q27 158 170 247q125 78 295 78q365 0 365 -276q0 -33 -6 -70h-330q11 29 11 48q0 21 -13 31 q-25 18 -72 17q-76 0 -86 -37q-2 -39 76 -57q41 -10 81 -18.5t81 -18.5q239 -68 239 -232q0 -28 -6 -57q-31 -178 -192 -266q-135 -74 -328 -74q-129 0 -229 52q-150 76 -150 250z" />
<glyph unicode="T" horiz-adv-x="925" d="M88 682l49 283h869l-50 -283h-264l-121 -682h-340l121 682h-264z" />
<glyph unicode="U" horiz-adv-x="1046" d="M61 274q0 23 3.5 48.5t7.5 54.5l104 588h340l-92 -525q-12 -70 -12 -94q0 -94 96 -94q80 0 113 63q20 37 34 125l93 525h339l-104 -588q-70 -399 -524 -400q-397 0 -398 297z" />
<glyph unicode="V" horiz-adv-x="899" d="M74 965h346l51 -488l219 488h352l-479 -965h-364z" />
<glyph unicode="W" horiz-adv-x="1316" d="M86 965h340l12 -476l178 476h297l11 -480l182 480h340l-447 -965h-323l-2 453l-162 -453h-326z" />
<glyph unicode="X" horiz-adv-x="1021" d="M-104 0l448 512l-248 453h406l88 -222l164 222h385l-400 -457l265 -508h-412l-103 252l-198 -252h-395z" />
<glyph unicode="Y" horiz-adv-x="923" d="M45 965h383l88 -303l201 303h377l-463 -607l-64 -358h-340l64 354z" />
<glyph unicode="Z" horiz-adv-x="948" d="M-33 0l45 256l484 426h-385l49 283h848l-41 -238l-492 -444h434l-49 -283h-893z" />
<glyph unicode="[" horiz-adv-x="581" d="M-51 -186l215 1214h489l-43 -246h-202l-127 -723h202l-45 -245h-489z" />
<glyph unicode="\" horiz-adv-x="616" d="M92 987h256l219 -1010h-258z" />
<glyph unicode="]" horiz-adv-x="581" d="M-51 -186l45 245h205l127 723h-205l43 246h489l-215 -1214h-489z" />
<glyph unicode="^" horiz-adv-x="835" d="M84 446l342 494h192l164 -494h-258l-55 197l-127 -197h-258z" />
<glyph unicode="_" horiz-adv-x="1662" d="M-104 -225l24 143h1671l-24 -143h-1671z" />
<glyph unicode="`" horiz-adv-x="415" d="M-25 971h363l131 -201h-244z" />
<glyph unicode="a" horiz-adv-x="849" d="M-2 158q0 10 1 22.5t3 24.5q18 100 102 155q68 45 177 66l86 12t88 15q14 2 21 4t11 4q20 6 23 26q1 5 1 9q0 28 -56 28q-70 0 -88 -67h-291q59 262 426 262q315 0 315 -174q0 -33 -12 -107l-47 -268q-6 -35 -6 -66q0 -59 22 -106h-325q-6 18 -7 37q-84 -53 -215 -53 q-104 0 -166.5 45t-62.5 131zM317 213q-1 -3 -1 -6q0 -29 53 -29q82 0 100 80l6 27l-92 -25q-61 -18 -66 -47z" />
<glyph unicode="b" horiz-adv-x="899" d="M6 0l170 965h311l-51 -287q78 53 176 53q260 0 260 -274q0 -23 -2 -47.5t-6 -49.5q-25 -150 -123 -256q-110 -122 -256 -122h-2q-119 0 -168 53l-6 -35h-303zM367 295q0 -82 69 -82q92 0 117 145q6 31 6 56q0 84 -72 84q-90 0 -114 -140q-6 -39 -6 -63z" />
<glyph unicode="c" horiz-adv-x="849" d="M33 283q0 35 6 67q29 164 164 266q131 102 299 103q154 0 239 -74q82 -71 82 -198q0 -19 -2 -39h-297v12q0 39 -12 53q-14 16 -47 16q-90 0 -115 -139q-6 -39 -6 -61q0 -78 72 -78q68 0 96 96h301q-49 -160 -169 -242.5t-273 -82.5q-74 0 -136.5 21.5t-107.5 61t-69.5 95 t-24.5 123.5z" />
<glyph unicode="d" horiz-adv-x="899" d="M33 279q0 43 6 81q29 152 108 248q104 123 275 123q96 0 156 -53l51 287h311l-170 -965h-301l6 37q-70 -55 -190 -55q-125 0 -193 90q-59 82 -59 207zM344 299q0 -86 72 -86q91 0 116 145q6 31 7 56q0 84 -72 84q-92 0 -117 -140q-6 -33 -6 -59z" />
<glyph unicode="e" horiz-adv-x="876" d="M33 274q0 37 6 74q27 154 156 264q125 106 297 107q350 0 350 -309q0 -66 -15 -138h-499q6 -84 92 -84q66 0 104 50h289q-133 -256 -430 -256q-160 0 -255 77.5t-95 214.5zM365 449h190q-2 63 -76 63q-82 0 -114 -63z" />
<glyph unicode="f" horiz-adv-x="573" d="M37 510l37 205h106q20 143 94 203q83 67 258 67h5q16 0 60 -2t79 -2l-39 -223q-45 4 -66.5 6t-19.5 2q-55 0 -64 -51h138l-37 -205h-133l-90 -510h-312l90 510h-106z" />
<glyph unicode="g" horiz-adv-x="876" d="M-14 4h313q-6 -33 12.5 -52.5t42.5 -19.5q74 0 101 129l4 21q-80 -55 -172 -55q-264 0 -264 262q0 47 8 88q27 147 125 241q106 100 258 101q98 0 149 -49l4 32h312l-109 -626q-57 -340 -442 -340q-342 0 -342 253v15zM410 238q55 0 86 59q24 50 24 113q0 77 -69 77h-2 q-57 0 -89 -55q-24 -43 -24 -103q0 -91 74 -91z" />
<glyph unicode="h" horiz-adv-x="899" d="M6 0l170 965h311l-51 -291q82 57 203 57q98 0 158.5 -51t60.5 -145q0 -14 -1 -26.5t-3 -27.5l-84 -481h-311l65 375q4 20 6 34.5t2 22.5q0 49 -51 49q-80 0 -98 -104l-66 -377h-311z" />
<glyph unicode="i" horiz-adv-x="458" d="M10 0l127 715h314l-127 -715h-314zM152 797l38 225h314l-39 -225h-313z" />
<glyph unicode="j" horiz-adv-x="458" d="M-147 -227l45 252h69q49 0 58 61l110 627h314l-115 -654q-31 -176 -111 -235q-70 -51 -221 -51h-149zM152 797l38 227h314l-39 -227h-313z" />
<glyph unicode="k" horiz-adv-x="849" d="M10 0l170 965h314l-70 -400l156 150h366l-321 -279l221 -436h-375l-92 223l-19 -16l-36 -207h-314z" />
<glyph unicode="l" horiz-adv-x="458" d="M10 0l170 965h314l-170 -965h-314z" />
<glyph unicode="m" horiz-adv-x="1316" d="M4 0l125 705h303l-10 -50q82 63 215 64q123 0 174 -86q92 86 246 86q221 0 221 -193q0 -14 -1 -26.5t-3 -26.5l-84 -473h-309l65 377q6 35 6 49q0 47 -51 47q-68 0 -84 -96l-65 -377h-310l66 377q6 37 6 51q0 45 -49 45q-66 0 -82 -96l-66 -377h-313z" />
<glyph unicode="n" horiz-adv-x="899" d="M6 0l125 705h303l-8 -48q84 61 211 62q96 0 156 -47q65 -52 65 -145q0 -15 -1 -27.5t-3 -26.5l-84 -473h-311l65 369q4 20 6 34.5t2 22.5q0 47 -51 47q-80 0 -98 -102l-66 -371h-311z" />
<glyph unicode="o" horiz-adv-x="876" d="M33 276q0 197 135 320t336 123q172 0 260 -86q80 -76 80 -207q0 -195 -137 -320q-133 -124 -334 -124q-170 0 -260 86q-80 78 -80 208zM344 291q0 -80 70 -80q87 0 112 141q6 35 6 58q0 79 -67 79h-2q-88 0 -113 -137q-6 -39 -6 -61z" />
<glyph unicode="p" horiz-adv-x="899" d="M-35 -227l164 929h303l-6 -34q70 51 188 51q123 0 195 -90q59 -84 59 -205q0 -39 -6 -80q-29 -152 -110 -250q-104 -123 -273 -123q-98 0 -157 56l-46 -254h-311zM365 285q0 -82 69 -82q92 0 117 141q6 35 6 59q0 84 -72 84q-90 0 -114 -143q-6 -37 -6 -59z" />
<glyph unicode="q" horiz-adv-x="899" d="M29 244q0 53 8 100q29 147 123 254q109 121 256 121q117 0 170 -53l6 36h301l-164 -929h-311l45 254q-82 -55 -174 -56q-260 0 -260 273zM342 287q0 -84 72 -84q89 0 116 141q6 35 7 62q0 81 -70 81h-2q-92 0 -117 -143q-6 -33 -6 -57z" />
<glyph unicode="r" horiz-adv-x="628" d="M6 0l125 705h301l-10 -52q72 66 184 66q39 0 99 -14l-50 -271q-80 25 -123 25q-135 0 -165 -176l-50 -283h-311z" />
<glyph unicode="s" horiz-adv-x="800" d="M10 248h299q-1 -8 -1 -14q0 -52 69 -52q63 0 67 29q2 20 -18 29q-8 2 -96 18q-264 47 -264 188q0 10 1 20.5t3 20.5q20 123 151 185q104 47 238 47q316 0 316 -209q0 -14 -1 -29h-287q6 25 -15 39.5t-40 14.5q-53 0 -57 -29q0 -4 12 -14q72 -12 219 -50q150 -45 150 -163 q0 -10 -1 -20.5t-3 -20.5q-47 -256 -422 -256q-141 0 -230 59q-92 63 -92 173q0 16 2 34z" />
<glyph unicode="t" horiz-adv-x="589" d="M37 510l35 203h116l37 202h312l-37 -202h141l-35 -203h-141l-37 -209q-2 -12 -2 -21q0 -44 43 -44h2q14 0 88 6l-43 -242q-23 0 -48.5 -1t-57.5 -3q-33 -2 -54.5 -3t-36.5 -1q-225 0 -225 160q0 29 6 61l54 297h-117z" />
<glyph unicode="u" horiz-adv-x="899" d="M43 176q0 14 1 26.5t3 26.5l82 473h311l-63 -368q-6 -39 -6 -58q0 -47 49 -47q80 0 98 103l64 370h311l-123 -704h-301l8 49q-87 -65 -211 -65h-4q-98 0 -158.5 50t-60.5 144z" />
<glyph unicode="v" horiz-adv-x="778" d="M35 702h330l30 -327l148 327h323l-368 -702h-342z" />
<glyph unicode="w" horiz-adv-x="1193" d="M37 702h325l27 -323l125 323h287l16 -329l135 329h324l-352 -702h-310l-24 326l-139 -326h-308z" />
<glyph unicode="x" horiz-adv-x="778" d="M-104 0l321 369l-174 333h350l41 -104l80 104h340l-289 -333l193 -369h-346l-64 137l-106 -137h-346z" />
<glyph unicode="y" horiz-adv-x="778" d="M-59 -227l45 250h84q57 0 70 5q18 7 18 30q0 26 -25 149q-10 41 -18.5 80t-18.5 78l-69 337h335l37 -319l150 319h323l-352 -647q-39 -72 -55 -98q-39 -61 -70 -92q-57 -61 -149 -80q-51 -12 -164 -12h-141z" />
<glyph unicode="z" horiz-adv-x="778" d="M-43 0l39 225l330 248h-256l39 229h677l-38 -225l-320 -250h305l-41 -227h-735z" />
<glyph unicode="{" horiz-adv-x="581" d="M25 297l43 248q113 0 120 51l43 244q16 90 97 143q70 45 149 45h176l-43 -246h-71q-43 0 -54 -55l-32 -186q-16 -78 -91 -119q51 -27 52 -94q0 -8 -1 -16.5t-3 -18.5l-33 -178q-8 -55 43 -56h63l-45 -245h-176q-72 0 -123 39q-59 43 -59 116q0 8 1 16.5t3 18.5l41 234 q10 59 -100 59z" />
<glyph unicode="|" horiz-adv-x="430" d="M86 -23v1010h256v-1010h-256z" />
<glyph unicode="}" horiz-adv-x="581" d="M-51 -186l45 245h63q51 0 60 56l35 188q16 84 92 117q-53 29 -54 94q0 8 1.5 16.5t3.5 18.5l30 178q10 55 -41 55h-63l43 246h176q72 0 123 -37q61 -43 61 -117q0 -8 -1 -16t-3 -18l-43 -236q-10 -59 101 -59l-43 -248q-109 0 -119 -49l-43 -244q-16 -92 -99 -143 q-72 -47 -149 -47h-176z" />
<glyph unicode="~" horiz-adv-x="851" d="M92 369q84 96 211 96q66 0 152 -33q121 -31 127 -31q41 0 147 95l33 -177q-115 -96 -215 -96q-61 0 -144 35q-70 31 -137 31q-53 0 -139 -101z" />
<glyph unicode="&#xa1;" />
<glyph unicode="&#xa2;" />
<glyph unicode="&#xa3;" />
<glyph unicode="&#xa4;" />
<glyph unicode="&#xa5;" />
<glyph unicode="&#xa6;" />
<glyph unicode="&#xa7;" />
<glyph unicode="&#xa8;" />
<glyph unicode="&#xa9;" horiz-adv-x="1134" d="M78 393q0 49 8 90q37 209 209 357q176 147 385 147q186 0 305 -119q121 -121 121 -297q0 -47 -8 -88q-37 -211 -211 -358t-385 -148q-184 0 -305 117q-119 119 -119 299zM215 414q0 -135 86 -226q86 -88 223 -88q178 0 310 138q135 139 135 313q0 135 -88 223 q-86 90 -224 90q-178 0 -309 -137q-133 -139 -133 -313zM326 422q0 29 6 59q20 123 106 197t205 74q211 0 205 -195h-139q0 74 -91 74q-33 0 -61.5 -15.5t-49 -41t-31.5 -58.5t-11 -67q0 -115 98 -115q92 0 125 86h139q-20 -86 -94 -144q-84 -66 -186 -65 q-106 0 -163.5 56.5t-57.5 154.5z" />
<glyph unicode="&#xaa;" />
<glyph unicode="&#xab;" horiz-adv-x="702" d="M35 248l41 223l299 182l-41 -231l-101 -64l80 -61l-41 -231zM362 248l41 223l299 182l-40 -231l-101 -64l80 -61l-41 -231z" />
<glyph unicode="&#xac;" />
<glyph unicode="&#xad;" horiz-adv-x="591" d="M43 260l37 201h473l-37 -201h-473z" />
<glyph unicode="&#xae;" horiz-adv-x="1134" d="M78 393q0 49 8 90q37 209 209 357q176 147 385 147q186 0 305 -119q121 -121 121 -297q0 -47 -8 -88q-37 -211 -211 -358t-385 -148q-184 0 -305 117q-119 119 -119 299zM215 414q0 -135 86 -226q86 -88 223 -88q178 0 310 138q135 139 135 313q0 135 -88 223 q-86 90 -224 90q-178 0 -309 -137q-133 -139 -133 -313zM344 225l90 512h199q205 0 205 -121q0 -10 -1 -19t-3 -19q-20 -129 -160 -140l76 -213h-132l-67 205h-47l-37 -205h-123zM520 524h101q74 0 84 66q10 53 -91 53h-73z" />
<glyph unicode="&#xaf;" />
<glyph unicode="&#xb0;" />
<glyph unicode="&#xb1;" />
<glyph unicode="&#xb2;" />
<glyph unicode="&#xb3;" />
<glyph unicode="&#xb4;" />
<glyph unicode="&#xb5;" />
<glyph unicode="&#xb6;" />
<glyph unicode="&#xb7;" />
<glyph unicode="&#xb8;" />
<glyph unicode="&#xb9;" />
<glyph unicode="&#xba;" />
<glyph unicode="&#xbb;" horiz-adv-x="702" d="M4 66l41 231l102 61l-81 62l40 233l238 -182l-41 -223zM332 66l41 231l102 61l-82 62l41 233l238 -182l-41 -223z" />
<glyph unicode="&#xbc;" />
<glyph unicode="&#xbd;" />
<glyph unicode="&#xbe;" />
<glyph unicode="&#xbf;" />
<glyph unicode="&#xc0;" />
<glyph unicode="&#xc1;" />
<glyph unicode="&#xc2;" />
<glyph unicode="&#xc3;" />
<glyph unicode="&#xc4;" />
<glyph unicode="&#xc5;" />
<glyph unicode="&#xc6;" />
<glyph unicode="&#xc7;" />
<glyph unicode="&#xc8;" />
<glyph unicode="&#xc9;" />
<glyph unicode="&#xca;" />
<glyph unicode="&#xcb;" />
<glyph unicode="&#xcc;" />
<glyph unicode="&#xcd;" />
<glyph unicode="&#xce;" />
<glyph unicode="&#xcf;" />
<glyph unicode="&#xd0;" />
<glyph unicode="&#xd1;" />
<glyph unicode="&#xd2;" />
<glyph unicode="&#xd3;" />
<glyph unicode="&#xd4;" />
<glyph unicode="&#xd5;" />
<glyph unicode="&#xd6;" />
<glyph unicode="&#xd7;" horiz-adv-x="942" d="M35 61l330 281l-230 281l119 102l231 -281l334 283l84 -102l-334 -283l234 -283l-121 -102l-231 283l-332 -283z" />
<glyph unicode="&#xd8;" />
<glyph unicode="&#xd9;" />
<glyph unicode="&#xda;" />
<glyph unicode="&#xdb;" />
<glyph unicode="&#xdc;" />
<glyph unicode="&#xdd;" />
<glyph unicode="&#xde;" />
<glyph unicode="&#xdf;" />
<glyph unicode="&#xe0;" />
<glyph unicode="&#xe1;" />
<glyph unicode="&#xe2;" />
<glyph unicode="&#xe3;" />
<glyph unicode="&#xe4;" />
<glyph unicode="&#xe5;" />
<glyph unicode="&#xe6;" />
<glyph unicode="&#xe7;" />
<glyph unicode="&#xe8;" />
<glyph unicode="&#xe9;" />
<glyph unicode="&#xea;" />
<glyph unicode="&#xeb;" />
<glyph unicode="&#xec;" />
<glyph unicode="&#xed;" />
<glyph unicode="&#xee;" />
<glyph unicode="&#xef;" />
<glyph unicode="&#xf0;" />
<glyph unicode="&#xf1;" />
<glyph unicode="&#xf2;" />
<glyph unicode="&#xf3;" />
<glyph unicode="&#xf4;" />
<glyph unicode="&#xf5;" />
<glyph unicode="&#xf6;" />
<glyph unicode="&#xf7;" horiz-adv-x="942" d="M47 268l27 146h819l-27 -146h-819zM313 72q8 45 47 78.5t86 33.5q45 0 73 -32.5t20 -79.5q-8 -45 -47 -79t-86 -34q-45 0 -73 33t-20 80zM410 610q8 47 47 80t84 33q47 0 74.5 -34t19.5 -79q-8 -47 -47 -79.5t-86 -32.5t-74 32.5t-18 79.5z" />
<glyph unicode="&#xf8;" />
<glyph unicode="&#xf9;" />
<glyph unicode="&#xfa;" />
<glyph unicode="&#xfb;" />
<glyph unicode="&#xfc;" />
<glyph unicode="&#xfd;" />
<glyph unicode="&#xfe;" />
<glyph unicode="&#xff;" />
<glyph unicode="&#x131;" />
<glyph unicode="&#x141;" />
<glyph unicode="&#x142;" />
<glyph unicode="&#x152;" />
<glyph unicode="&#x153;" />
<glyph unicode="&#x160;" />
<glyph unicode="&#x161;" />
<glyph unicode="&#x178;" />
<glyph unicode="&#x17d;" />
<glyph unicode="&#x17e;" />
<glyph unicode="&#x192;" />
<glyph unicode="&#x2c6;" />
<glyph unicode="&#x2c7;" />
<glyph unicode="&#x2d8;" />
<glyph unicode="&#x2d9;" />
<glyph unicode="&#x2da;" horiz-adv-x="602" d="M188 776q0 86 76 131q63 39 154 39q176 0 176 -121q0 -84 -74 -131q-63 -39 -153 -39q-178 0 -179 121z" />
<glyph unicode="&#x2db;" />
<glyph unicode="&#x2dc;" />
<glyph unicode="&#x2dd;" />
<glyph unicode="&#xe00;" />
<glyph unicode="&#xe01;" horiz-adv-x="901" d="M-20 0l71 408q10 53 76 88l-53 43l4 18q31 133 170 211q127 68 289 68q152 0 251 -58q113 -63 113 -178q0 -10 -1 -21.5t-3 -21.5l-98 -557h-328l96 547q16 78 -69 78q-72 0 -92 -64l43 -51q-57 -33 -68 -92l-74 -418h-327z" />
<glyph unicode="&#xe02;" horiz-adv-x="890" d="M33 219q0 10 1 21.5t3 21.5l45 266q10 66 98 117h-117l31 174h455l-31 -164q-37 -2 -66.5 -33.5t-37.5 -74.5l-49 -281q-12 -72 61 -71q70 0 82 71l98 553h328l-98 -557q-25 -135 -162 -211q-119 -68 -287 -67q-152 0 -246 57q-109 66 -108 178z" />
<glyph unicode="&#xe03;" horiz-adv-x="890" d="M33 219q0 10 1 21.5t3 21.5l45 266q10 66 98 117h-127l31 174h156l59 -51l80 51h170l-31 -164q-37 -2 -66.5 -33.5t-37.5 -74.5l-49 -281q-12 -72 61 -71q70 0 82 71l98 553h328l-98 -557q-25 -135 -162 -211q-119 -68 -287 -67q-152 0 -246 57q-109 66 -108 178z" />
<glyph unicode="&#xe04;" horiz-adv-x="901" d="M-20 0l98 557q25 133 166 211q127 68 293 68q152 0 251 -58q113 -63 113 -178q0 -10 -1 -21.5t-3 -21.5l-98 -557h-328l98 553q12 72 -69 72q-78 0 -94 -72l-13 -64h123l-35 -204h-123l-51 -285h-327z" />
<glyph unicode="&#xe05;" horiz-adv-x="901" d="M-20 0l98 553q25 133 131 209q100 70 229 69q0 -27 24.5 -46t61.5 -19t69 20.5t42 44.5q115 0 188 -55q78 -61 78 -168q0 -14 -1 -27.5t-3 -27.5l-98 -553h-328l104 596q-23 -41 -88 -41q-57 0 -75 41l-19 -107h123l-35 -204h-123l-51 -285h-327z" />
<glyph unicode="&#xe06;" horiz-adv-x="921" d="M0 0l92 528q12 66 98 117h-127l31 174h156l59 -51l80 51h170l-31 -164q-37 -2 -66.5 -33.5t-37.5 -74.5l-45 -252q-6 -35 16.5 -60.5t55.5 -25.5q78 0 92 82l94 528h328l-105 -592q-18 -100 -106 -170q-84 -70 -189 -69q-154 0 -221 104l-16 -92h-328z" />
<glyph unicode="&#xe07;" horiz-adv-x="886" d="M74 819h327l7 -614h24q51 0 88 114q29 98 29 166q0 129 -88 129h-21l37 205h117q295 0 295 -272q0 -61 -12 -135q-31 -172 -132 -285q-111 -127 -256 -127h-411z" />
<glyph unicode="&#xe08;" horiz-adv-x="870" d="M20 317l31 175h268q106 0 101 -111l-10 -176h10q29 0 59.5 60.5t46.5 158.5q8 39 9 80q0 119 -82 121q-70 4 -99 -62h-327q37 113 149 187q129 86 322 86q168 0 270 -87t102 -241q0 -45 -8 -86q-35 -193 -127 -303q-100 -119 -239 -119h-408l10 274q4 43 -45 43h-33z" />
<glyph unicode="&#xe09;" horiz-adv-x="925" d="M4 317l31 175h246q121 0 120 -89q0 -14 -2 -22l-16 -90q-6 -35 11.5 -58.5t51.5 -23.5q33 0 64 25.5t37 60.5l43 237q16 92 -76 93q-86 0 -106 -76h-328l2 8q33 135 174 211q127 68 295 68q162 0 262 -60q109 -66 109 -188q0 -14 -1 -27.5t-3 -28.5l-95 -532h-327l16 92 q-106 -104 -258 -104q-94 0 -152.5 52t-58.5 144q0 10 1 21.5t3 21.5l6 41q10 49 -43 49h-6z" />
<glyph unicode="&#xe0a;" horiz-adv-x="894" d="M-20 0l145 819h328l-109 -614h57q66 0 105 57q35 53 35 121q0 92 -92 92h-17l33 184h20q96 0 123 123l8 37h328l-10 -49q-35 -160 -176 -205q117 -49 116 -192q0 -14 -1 -26.5t-3 -27.5q-25 -139 -125 -227q-106 -92 -245 -92h-520z" />
<glyph unicode="&#xe0b;" horiz-adv-x="925" d="M-10 0l92 528q12 66 98 117h-127l31 174h154l59 -51l80 51h162l-27 -143q-74 0 -96 -115l-62 -356h58q66 0 104 55q35 53 35 117q0 88 -88 88l33 184h18q96 0 123 123l10 47h328l-10 -49q-35 -160 -177 -205q117 -49 117 -192q0 -14 -1 -26.5t-3 -27.5 q-25 -139 -125 -227q-106 -92 -246 -92h-540z" />
<glyph unicode="&#xe0c;" horiz-adv-x="1351" d="M-20 0l71 408q10 53 76 88l-53 43l4 18q31 133 170 211q127 68 289 68q152 0 251 -58q113 -63 113 -178q0 -10 -1 -21.5t-3 -21.5l-47 -262q-2 -8 -2 -23q0 -63 53 -63q57 0 72 82l94 528h328l-105 -592q-8 -53 -33.5 -97t-62.5 -75.5t-83 -49t-95 -17.5q-131 0 -203 98 l-14 -86h-328l96 547q16 78 -69 78q-72 0 -92 -64l43 -51q-57 -33 -68 -92l-45 -254h78l-29 -164h-405z" />
<glyph unicode="&#xe0d;" horiz-adv-x="1351" d="M-20 0l71 408q10 53 76 88l-53 43l4 18q31 133 170 211q127 68 289 68q152 0 251 -58q113 -63 113 -178q0 -10 -1 -21.5t-3 -21.5l-51 -285q-12 -63 49 -63q59 0 72 63l98 547h328l-138 -776q-51 -291 -395 -291h-432l29 164h313q133 0 148 74l6 33q-33 -25 -136 -25 q-274 0 -274 215q0 31 6 63l47 271q16 78 -69 78q-72 0 -92 -64l43 -51q-57 -33 -68 -92l-45 -254h78l-29 -164h-405z" />
<glyph unicode="&#xe0e;" horiz-adv-x="942" d="M-61 0l28 164h82l43 244q10 53 76 88l-53 43l4 18q31 133 170 211q127 68 289 68q152 0 251 -58q113 -63 113 -178q0 -10 -1 -21.5t-3 -21.5l-125 -704q-33 -180 -233 -181h-136l-90 76l-110 -76h-281l31 174h266l127 82l98 -82l123 701q16 78 -69 78q-72 0 -93 -64 l43 -51q-57 -33 -67 -92l-74 -418h-409z" />
<glyph unicode="&#xe0f;" horiz-adv-x="942" d="M-119 -328l31 174h184l117 82l78 -82l106 82l88 -82l123 701q16 78 -69 78q-72 0 -93 -64l43 -51q-57 -33 -67 -92l-74 -418h-409l28 164h82l43 244q10 53 76 88l-53 43l4 18q31 133 170 211q127 68 289 68q152 0 251 -58q113 -63 113 -178q0 -10 -1 -21.5t-3 -21.5 l-125 -704q-33 -180 -233 -181h-136l-79 76l-105 -86l-80 86l-100 -76h-199z" />
<glyph unicode="&#xe10;" horiz-adv-x="870" d="M-133 -328l31 174h184l117 82l77 -82l107 82l88 -82l18 109h246l-22 -131q-29 -152 -172 -152h-111l-80 76l-104 -86l-80 86l-100 -76h-199zM20 317l31 175h268q106 0 101 -111l-10 -176h10q29 0 59.5 60.5t46.5 158.5q8 39 9 80q0 119 -82 121q-70 4 -99 -62h-327 q37 113 149 187q129 86 322 86q43 0 80 -7q33 20 40 72h312q-20 -123 -129 -188q70 -82 69 -207q0 -45 -8 -84q-35 -188 -127 -303q-100 -119 -239 -119h-408l10 274q4 43 -45 43h-33z" />
<glyph unicode="&#xe11;" horiz-adv-x="942" d="M0 0l92 528q12 66 98 117h-127l31 174h135l60 -51l80 51h186l-31 -164q-31 -4 -57 -30q-35 -31 -41 -66l-35 -201l260 461h127q78 0 124 -47t46 -127q0 -12 -1 -25.5t-3 -27.5l-104 -592h-328l72 401l-215 -401h-369z" />
<glyph unicode="&#xe12;" horiz-adv-x="1382" d="M14 254q0 31 3 65.5t12 73.5q37 205 174 328q127 111 284 110q0 -66 80 -65q82 0 111 65q111 0 182.5 -59t71.5 -164q0 -12 -1 -24.5t-3 -26.5l-47 -262q-2 -8 -2 -23q0 -63 53 -63q57 0 72 82l94 528h327l-104 -592q-8 -53 -33.5 -97t-62.5 -75.5t-83 -49t-95 -17.5 q-131 0 -203 98l-15 -86h-327l104 596q-23 -41 -88 -41q-57 0 -76 41q-61 -61 -88 -215q-8 -39 -8 -80q0 -106 68 -106q16 0 43 10l-33 -178q-88 -35 -180 -35q-229 0 -230 262z" />
<glyph unicode="&#xe13;" horiz-adv-x="1351" d="M-20 0l71 408q10 53 76 88l-53 43l4 18q31 133 170 211q127 68 289 68q152 0 251 -58q113 -63 113 -178q0 -10 -1 -21.5t-3 -21.5l-47 -266q-14 -82 43 -82q66 0 80 86l94 524h328l-146 -819h-327l14 86q-100 -98 -236 -98q-86 0 -139 51t-53 139q0 10 1 22.5t3 26.5 l55 320q16 78 -69 78q-72 0 -92 -64l43 -51q-57 -33 -68 -92l-45 -254h78l-29 -164h-405z" />
<glyph unicode="&#xe14;" horiz-adv-x="915" d="M16 258q0 61 13 135q37 213 192 332q150 115 359 115q154 0 243.5 -65.5t89.5 -182.5q0 -10 -1 -22.5t-3 -26.5l-96 -543h-328l97 541q16 84 -56 84q-59 0 -104 -66.5t-64 -167.5q-8 -41 -8 -82q0 -113 76 -112q23 0 45 8l-33 -178q-92 -35 -186 -35q-236 0 -236 266z " />
<glyph unicode="&#xe15;" horiz-adv-x="931" d="M14 254q0 31 3 65.5t12 73.5q37 205 174 328q127 111 284 110q0 -66 80 -65q82 0 111 65q111 0 182.5 -59t71.5 -164q0 -12 -1 -24.5t-3 -26.5l-99 -557h-327l104 596q-23 -41 -88 -41q-57 0 -76 41q-59 -59 -88 -215q-8 -39 -8 -78q0 -109 68 -108q16 0 43 10l-33 -178 q-88 -35 -180 -35q-229 0 -230 262z" />
<glyph unicode="&#xe16;" horiz-adv-x="901" d="M-20 0l71 408q10 53 76 88l-53 43l4 18q31 133 170 211q127 68 289 68q152 0 251 -58q113 -63 113 -178q0 -10 -1 -21.5t-3 -21.5l-98 -557h-328l96 547q16 78 -69 78q-72 0 -92 -64l43 -51q-57 -33 -68 -92l-45 -254h78l-29 -164h-405z" />
<glyph unicode="&#xe17;" horiz-adv-x="901" d="M-20 0l145 819h328l-17 -92q109 104 258 104q94 0 153.5 -53t59.5 -141q0 -10 -1 -21.5t-3 -23.5l-104 -592h-328l92 528q14 82 -61 82q-33 0 -64.5 -25.5t-38.5 -60.5l-92 -524h-327z" />
<glyph unicode="&#xe18;" horiz-adv-x="874" d="M-20 0l57 322h315l-20 -117h100q59 0 68 49q8 63 -103 78q-106 14 -160.5 20t-58.5 8q-119 37 -119 154q0 10 1 23.5t3 27.5q23 123 146 195q125 76 303 76q379 0 379 -218q0 -10 -1 -22t-3 -25h-316q6 25 -18.5 40.5t-63.5 15.5q-33 0 -60.5 -14.5t-29.5 -30.5 q-4 -29 109 -37q78 -8 132 -17.5t87 -23.5q119 -51 119 -180q0 -25 -6 -60q-23 -125 -111 -194.5t-223 -69.5h-526z" />
<glyph unicode="&#xe19;" horiz-adv-x="901" d="M16 184q0 10 1 21.5t3 21.5l105 592h328l-95 -528q-6 -35 11.5 -58.5t52.5 -23.5q33 0 63.5 25.5t36.5 60.5l94 524h328l-145 -819h-328l16 92q-111 -104 -258 -104q-94 0 -153.5 55t-59.5 141z" />
<glyph unicode="&#xe1a;" horiz-adv-x="901" d="M25 229q0 27 6 58l94 532h328l-99 -553q-12 -72 70 -71q82 0 94 71l98 553h328l-94 -532q-29 -156 -164 -234q-119 -70 -299 -69q-160 0 -254 57q-109 66 -108 188z" />
<glyph unicode="&#xe1b;" horiz-adv-x="901" d="M25 229q0 27 6 58l94 532h328l-99 -553q-12 -72 70 -71q82 0 94 71l133 758h328l-129 -737q-29 -156 -164 -234q-119 -70 -299 -69q-160 0 -254 57q-109 66 -108 188z" />
<glyph unicode="&#xe1c;" horiz-adv-x="1163" d="M74 819h409l-30 -164h-78v-235l194 399h195l49 -399l141 399h303l-313 -819h-307l-45 408l-189 -408h-307z" />
<glyph unicode="&#xe1d;" horiz-adv-x="1163" d="M74 819h409l-30 -164h-78v-235l194 399h195l49 -399l217 604h303l-389 -1024h-307l-45 408l-189 -408h-307z" />
<glyph unicode="&#xe1e;" horiz-adv-x="1163" d="M74 819h303l-2 -399l194 399h195l49 -399l141 399h303l-313 -819h-307l-45 408l-189 -408h-307z" />
<glyph unicode="&#xe1f;" horiz-adv-x="1163" d="M74 819h303l-2 -399l194 399h195l49 -399l217 604h303l-389 -1024h-307l-45 408l-189 -408h-307z" />
<glyph unicode="&#xe20;" horiz-adv-x="942" d="M-61 0l28 164h82l43 244q10 53 76 88l-53 43l4 18q31 133 170 211q127 68 289 68q152 0 251 -58q113 -63 113 -178q0 -10 -1 -21.5t-3 -21.5l-98 -557h-328l96 547q16 78 -69 78q-72 0 -93 -64l43 -51q-57 -33 -67 -92l-74 -418h-409z" />
<glyph unicode="&#xe21;" horiz-adv-x="901" d="M-20 0l145 819h328l-95 -524q-6 -35 16.5 -60.5t55.5 -25.5q78 0 92 82l94 528h328l-104 -592q-18 -100 -105 -172q-86 -68 -190 -67q-147 0 -221 104l-17 -92h-327z" />
<glyph unicode="&#xe22;" horiz-adv-x="903" d="M-4 188q0 29 6 60q16 78 80 135q57 53 125 70q-127 37 -127 141q0 8 1 16t3 19q8 43 33.5 78.5t64.5 60.5t87 38t100 13h190l-31 -174q-8 2 -14 3t-14 1q-72 0 -82 -53q-4 -27 15.5 -43t60.5 -12l26 2l-33 -189h-24q-94 0 -111 -78q-6 -39 23 -57q23 -16 63 -12l72 2 l108 610h328l-145 -819l-531 -6q-274 -4 -274 194z" />
<glyph unicode="&#xe23;" horiz-adv-x="894" d="M-6 219q0 27 6 53h328q-2 -6 -2 -14q0 -53 100 -53q37 0 70.5 15.5t31.5 39.5q-4 41 -125 49q-168 14 -227 35q-121 43 -121 156q0 29 6 55q29 135 170 211q127 70 291 70q162 0 269 -54q121 -59 120 -170q0 -10 -1 -20t-3 -21h-315q6 25 -22.5 39.5t-67.5 14.5 q-92 0 -103 -47q-6 -37 115 -48q86 -8 142.5 -16t84.5 -18q125 -45 125 -168q0 -27 -6 -58q-27 -143 -170 -221q-125 -68 -303 -67q-180 0 -281 57q-113 63 -112 180z" />
<glyph unicode="&#xe24;" horiz-adv-x="901" d="M-20 0l71 408q10 53 76 88l-53 43l4 18q31 133 170 211q127 68 289 68q152 0 251 -58q113 -63 113 -178q0 -10 -1 -21.5t-3 -21.5l-141 -803h-328l139 793q16 78 -69 78q-72 0 -92 -64l43 -51q-57 -33 -68 -92l-45 -254h78l-29 -164h-405z" />
<glyph unicode="&#xe25;" horiz-adv-x="919" d="M0 203q0 12 1 24.5t3 26.5q20 133 146 217q125 82 303 82q70 0 131 -23l2 19q8 76 -80 76q-84 0 -109 -64h-325q37 123 165 199t312 76q180 0 276 -70q92 -63 93 -176q0 -12 -1.5 -24.5t-3.5 -24.5l-96 -541h-328l52 291q-41 29 -95 28q-102 0 -112 -61q-8 -49 74 -49 q25 0 43 6l-39 -211q-82 -16 -172 -16q-111 0 -175.5 58t-64.5 157z" />
<glyph unicode="&#xe26;" horiz-adv-x="942" d="M-61 0l28 164h82l43 244q10 53 76 88l-53 43l4 18q31 133 170 211q127 68 289 68q152 0 251 -58q113 -63 113 -178q0 -10 -1 -21.5t-3 -21.5l-141 -803h-328l139 793q16 78 -69 78q-72 0 -93 -64l43 -51q-57 -33 -67 -92l-74 -418h-409z" />
<glyph unicode="&#xe27;" horiz-adv-x="878" d="M10 260q0 31 6 64h332q-4 -20 -4 -31q0 -70 68 -70q84 0 120 205q6 35 7 59q0 106 -72 107q-59 0 -82 -55h-332q27 113 127 194q127 102 326 103q375 0 375 -314q-1 -43 -11 -100q-18 -104 -63 -185t-110.5 -137.5t-148.5 -86t-179 -29.5q-172 0 -265.5 75.5t-93.5 200.5 z" />
<glyph unicode="&#xe28;" horiz-adv-x="901" d="M-20 0l98 557q25 135 145 213q109 66 256 66q90 0 135 -25l17 90h327l-159 -901h-328l98 553q12 72 -69 72q-78 0 -94 -72l-13 -64h123l-35 -204h-123l-51 -285h-327z" />
<glyph unicode="&#xe29;" horiz-adv-x="921" d="M23 225q0 27 6 58l96 536h328l-99 -553q-12 -72 70 -71q82 0 94 71l17 94h-99l33 185h98l49 274h328l-49 -274h61l-32 -185h-62l-14 -77q-27 -154 -166 -234q-119 -70 -297 -69q-160 0 -254 57q-109 66 -108 188z" />
<glyph unicode="&#xe2a;" horiz-adv-x="919" d="M0 203q0 12 1 24.5t3 26.5q20 133 146 217q125 82 303 82q70 0 131 -23l2 19q8 76 -80 76q-84 0 -109 -64h-325q37 125 148.5 200t285.5 75q86 0 129 -17l14 82h328l-160 -901h-328l52 291q-41 29 -95 28q-102 0 -112 -61q-8 -49 74 -49q25 0 43 6l-39 -211 q-82 -16 -172 -16q-111 0 -175.5 58t-64.5 157z" />
<glyph unicode="&#xe2b;" horiz-adv-x="901" d="M-20 0l145 819h328l-45 -248q84 53 206 62h-131l35 186h430l-35 -186h-221q82 -10 131 -61.5t49 -131.5q0 -10 -1 -22t-3 -23l-69 -395h-328l59 334q6 35 -11 58.5t-52 23.5q-33 0 -64.5 -25.5t-37.5 -60.5l-58 -330h-327z" />
<glyph unicode="&#xe2c;" horiz-adv-x="1163" d="M72 819h303l14 -454l141 249h195l55 -249l66 151q12 29 12 53q0 86 -98 86h-125l29 164h149q145 0 184 107l15 37h305l-23 -64q-45 -131 -211 -154q82 -51 82 -143q0 -39 -14 -70l-207 -532h-317l-52 317l-161 -317h-318z" />
<glyph unicode="&#xe2d;" horiz-adv-x="956" d="M14 309q0 88 31 183h492l-29 -164h-174q-2 -51 30.5 -81t88.5 -30q150 0 182 193q2 14 3 27.5t1 25.5q0 139 -123 139q-92 0 -129 -59h-319q2 4 3 9t5 15q143 272 485 273q395 0 395 -328q0 -45 -10 -102q-33 -193 -160 -304q-139 -127 -376 -126q-395 0 -396 329z" />
<glyph unicode="&#xe2e;" horiz-adv-x="956" d="M14 309q0 88 31 183h492l-29 -164h-174q-2 -51 30.5 -81t88.5 -30q150 0 182 193q2 14 3 27.5t1 25.5q0 139 -123 139q-92 0 -129 -59h-319q2 4 3 9t5 15q143 272 485 273q16 0 38 -1t50 -3q27 20 33 65h311q-23 -111 -106 -174q70 -82 69 -213q0 -25 -3 -50.5t-7 -53.5 q-35 -195 -158 -304q-143 -127 -378 -126q-395 0 -396 329z" />
<glyph unicode="&#xe2f;" horiz-adv-x="843" d="M59 563q0 115 86 185q88 72 201 71h139l-30 -174q-49 0 -49 -37q0 -20 32 -20q29 0 57.5 16.5t32.5 40.5l31 174h328l-146 -819h-327l75 434q-90 -53 -223 -53q-98 0 -152.5 52t-54.5 130z" />
<glyph unicode="&#xe30;" horiz-adv-x="491" d="M2 168q0 18 2 29l23 125h327l-6 -31q-6 -35 47 -35h49l-30 -174h-240q-88 0 -123 14q-49 23 -49 72zM76 586q0 16 2 26l20 125h328l-4 -30q-4 -35 47 -35h49l-31 -174h-239q-92 0 -123 14q-49 23 -49 74z" />
<glyph unicode="&#xe31;" d="M-442 922l45 256h327l-16 -93h420l-29 -163h-747z" />
<glyph unicode="&#xe32;" horiz-adv-x="602" d="M45 608l37 209q86 6 190 6q322 0 322 -252q0 -35 -6 -71l-88 -500h-328l72 408q6 29 6 55q0 150 -141 149q-16 0 -32 -1t-32 -3z" />
<glyph unicode="&#xe33;" horiz-adv-x="602" d="M-283 1030q0 88 74 133q63 39 154 39q178 0 178 -119q0 -88 -76 -133q-63 -39 -153 -39q-176 0 -177 119zM45 608l37 209q86 6 190 6q322 0 322 -252q0 -35 -6 -71l-88 -500h-328l72 408q6 29 6 55q0 150 -141 149q-16 0 -32 -1t-32 -3z" />
<glyph unicode="&#xe34;" d="M-668 922l29 163h727l-29 -163h-727z" />
<glyph unicode="&#xe35;" d="M-668 922l29 163h399l19 103h327l-47 -266h-727z" />
<glyph unicode="&#xe36;" d="M-668 922l29 163h383q43 115 201 115q160 0 159 -115q0 -78 -67 -124q-57 -39 -141 -39h-564z" />
<glyph unicode="&#xe37;" d="M-668 922l29 163h399l19 103h123l-19 -103h62l18 103h143l-47 -266h-727z" />
<glyph unicode="&#xe38;" d="M-623 -225l29 164h399l-53 -297h-327l24 133h-72z" />
<glyph unicode="&#xe39;" d="M-879 -227l31 166h305l-22 -127q-10 -41 33 -41q39 0 49 41l22 127h287l-23 -127q-35 -190 -342 -191q-279 0 -278 152h-62z" />
<glyph unicode="&#xe3a;" d="M-487 -231q0 80 67 127q57 43 144 43q158 0 157 -121q0 -41 -16.5 -72t-45 -53.5t-66.5 -33.5t-81 -11q-160 0 -159 121z" />
<glyph unicode="&#xe3f;" horiz-adv-x="1021" d="M10 0l170 965h344l23 131h121l-23 -131h78q285 0 285 -205q0 -145 -123 -223q102 -59 102 -179q0 -27 -6 -57q-25 -139 -152 -223q-115 -78 -258 -78h-96l-29 -158h-120l28 158h-344zM397 264h148q86 0 98 66q10 59 -65 59h-160zM457 608h129q76 1 86 54q6 39 -70 38 h-129z" />
<glyph unicode="&#xe40;" horiz-adv-x="430" d="M0 0l145 819h328l-145 -819h-328z" />
<glyph unicode="&#xe41;" horiz-adv-x="819" d="M0 0l145 819h328l-145 -819h-328zM389 0l146 819h327l-145 -819h-328z" />
<glyph unicode="&#xe42;" horiz-adv-x="450" d="M20 0l162 915q6 29 -24 74q-29 47 -29 84q0 8 1 16.5t3 18.5q6 35 29.5 62.5t56.5 47t73 31t81 11.5h395l-29 -164h-196q-59 0 -64 -29q-2 -6 21 -41t16 -70l-168 -956h-328z" />
<glyph unicode="&#xe43;" horiz-adv-x="450" d="M-29 1067l6 31q18 90 121 145q102 57 240 57q137 0 218 -53t69 -139q-8 -68 -62 -127q-51 -55 -55 -80l-160 -901h-328l166 940q6 41 64 80q57 39 63 74q8 45 -45 45q-25 0 -47 -21.5t-22 -50.5h-228z" />
<glyph unicode="&#xe44;" horiz-adv-x="450" d="M20 0l166 936q8 43 62 84q53 39 57 47q4 29 -61 29h-209l28 164h375q41 0 77 -11.5t61.5 -31t39 -47t9.5 -62.5q-10 -63 -60 -113q-51 -51 -55 -80l-162 -915h-328z" />
<glyph unicode="&#xe45;" horiz-adv-x="602" d="M45 608l37 209q90 18 192 19q147 0 233.5 -68t86.5 -197q0 -35 -6 -71l-131 -746h-328l115 658q2 14 3 27.5t1 25.5q0 152 -129 151q-35 0 -74 -8z" />
<glyph unicode="&#xe46;" horiz-adv-x="880" d="M53 512q0 10 1 21.5t3 23.5q20 121 123 199q100 76 226 75q-2 -25 25.5 -45t72.5 -20t79.5 20.5t43.5 44.5q111 0 182.5 -59t71.5 -164q0 -12 -1 -24.5t-3 -26.5l-142 -803h-327l151 862q-27 -45 -90 -45q-53 0 -74 45q-14 -8 -33 -51q-8 -55 56 -55h15t18 2l-29 -164 q-43 -8 -81 -11t-73 -3q-86 0 -143 39q-72 47 -72 139z" />
<glyph unicode="&#xe47;" d="M-664 922l21 106q37 195 311 195h412l-19 -107h-327q-74 0 -86 -55v-6l119 55l100 -55h141l-24 -133h-154l-88 59l-109 -59h-297z" />
<glyph unicode="&#xe48;" d="M-213 1229l33 184h327l-32 -184h-328z" />
<glyph unicode="&#xe49;" d="M-313 1331l22 127h244q100 0 88 -94l-2 -16h194l-20 -119h-489l10 57q8 45 -29 45h-18z" />
<glyph unicode="&#xe4a;" d="M-354 1229l16 96q23 133 176 133h70l67 -59l91 59h69q133 0 133 -84q0 -14 -2 -24l-2 -11h82l-18 -110h-301l14 86l-90 -64l-70 64l-14 -86h-221z" />
<glyph unicode="&#xe4b;" d="M-258 1303l16 90h92l13 73h258l-12 -73h92l-17 -90h-92l-12 -74h-258l12 74h-92z" />
<glyph unicode="&#xe4c;" d="M-231 1157l8 51q25 152 221 152h192l-22 -129h-35q-61 0 -67 -53l-3 -21h-294z" />
<glyph unicode="&#xe4d;" d="M-283 1030q0 88 74 133q63 39 154 39q178 0 178 -119q0 -88 -76 -133q-63 -39 -153 -39q-176 0 -177 119z" />
<glyph unicode="&#xe4e;" />
<glyph unicode="&#xe4f;" horiz-adv-x="962" d="M66 336q0 193 151 344q152 150 348 149q154 0 252 -100q100 -98 101 -246q0 -193 -154 -344q-149 -149 -346 -149q-152 0 -254 98q-98 102 -98 248zM127 348q0 -125 84 -213q88 -84 217 -84q164 0 297 127q131 129 131 293q0 129 -86 211q-82 86 -215 86 q-164 0 -297 -129q-131 -125 -131 -291zM231 365q0 121 93 208q96 92 213 93q94 0 154.5 -59.5t60.5 -151.5q0 -119 -95 -211q-94 -90 -211 -90q-94 0 -154.5 59t-60.5 152z" />
<glyph unicode="&#xe50;" horiz-adv-x="798" d="M18 248q0 37 7 69q29 150 133 240q117 98 295 98q156 0 239 -77q76 -70 76 -191q0 -35 -6 -70q-29 -150 -133 -239q-117 -98 -295 -98q-156 0 -240 77q-76 70 -76 191zM283 289q0 -92 90 -92q59 0 95 45t36 104q0 92 -88 92q-59 0 -96 -44t-37 -105z" />
<glyph unicode="&#xe51;" horiz-adv-x="798" d="M33 -8l33 180q121 -23 223 -12q84 6 143 51q72 53 72 129q0 92 -103 92q-94 0 -104 -53q-2 -31 57 -31q31 0 68 12l-29 -157q-33 -8 -59.5 -11.5t-48.5 -3.5q-252 0 -252 154q0 10 1 21.5t3 23.5q20 125 139 199q109 70 268 69q326 0 326 -258q0 -45 -8 -84 q-33 -160 -165 -251t-325 -93q-121 -2 -239 23z" />
<glyph unicode="&#xe52;" horiz-adv-x="1081" d="M-10 0l104 588q2 8 2 16v17q0 72 -69 116l241 117q96 -47 97 -154q0 -10 -1.5 -21t-3.5 -22l-88 -493h471l45 260l-77 -74l-76 76q-25 -12 -29 -47q-4 -31 23 -33q8 -2 47 4l-25 -143q-49 -14 -125 -14q-178 0 -178 145v19.5t2 19.5q35 268 332 268l68 -74l86 74 q213 0 213 -168q0 -10 -1 -22.5t-4 -24.5l-75 -430h-979z" />
<glyph unicode="&#xe53;" horiz-adv-x="843" d="M12 203q0 23 3 49.5t8 54.5q59 338 364 338l94 -84l123 84q217 0 217 -170q0 -10 -1 -22.5t-3 -24.5l-76 -428h-260l68 387l-109 -72l-110 97q-33 -29 -47 -115q-2 -10 -3 -19.5t-1 -17.5q0 -76 83 -76q20 0 31 2l-33 -184l-90 -6q-258 -18 -258 207z" />
<glyph unicode="&#xe54;" horiz-adv-x="880" d="M16 233q0 33 7 72q27 160 141.5 250t288.5 90h170l34 205h261l-68 -389h-375q-80 0 -136 -50.5t-56 -127.5q0 -104 108 -88q-35 31 -24 90q10 61 64 106t120 45q59 0 96 -37t37 -90q0 -66 -49 -114h127l-35 -195l-401 -4q-309 -2 -310 237z" />
<glyph unicode="&#xe55;" horiz-adv-x="880" d="M16 231q0 35 7 74q41 227 245 307q-29 43 -20 88q12 66 66.5 113t127.5 47q66 0 103 -37t37 -94q0 -49 -21 -84h62l34 205h261l-68 -389h-375q-80 0 -136 -50.5t-56 -127.5q0 -104 108 -88q-35 31 -24 90q10 61 64 106t120 45q59 0 96 -37t37 -90q0 -66 -49 -114h127 l-35 -195l-401 -4q-309 -2 -310 235z" />
<glyph unicode="&#xe56;" horiz-adv-x="788" d="M18 731l240 123q96 -53 96 -162q0 -14 -4 -35l-8 -43q68 37 147 41q272 6 273 -237q0 -23 -3 -47.5t-7 -53.5q-57 -338 -426 -337q-301 0 -301 231q0 20 2 42.5t6 47.5h260q-4 -20 -4 -31q0 -76 82 -75q57 0 90 45t33 106q0 86 -86 88q-76 2 -117 -59h-246l39 213 q4 20 4 33q0 66 -70 110z" />
<glyph unicode="&#xe57;" horiz-adv-x="1120" d="M12 203q0 23 3 49.5t8 54.5q59 338 364 338l74 -84l102 84q217 0 217 -170q0 -10 -1 -22.5t-3 -24.5l-43 -244q63 0 72 62l76 428q23 123 163 180l170 -104q-92 -49 -112 -162l-60 -338q-43 -250 -311 -250h-291l68 387l-90 -80l-88 105q-33 -29 -47 -115 q-2 -10 -3 -19.5t-1 -17.5q0 -76 83 -76q20 0 31 2l-33 -184l-90 -6q-258 -18 -258 207z" />
<glyph unicode="&#xe58;" horiz-adv-x="854" d="M14 219q0 41 11 98q57 328 385 328h184l37 205h260l-70 -389h-375q-61 0 -105 -37t-54 -96q-12 -72 10 -95l125 107l100 -107l21 125h260l-62 -358h-252l-108 100l-109 -104h-77q-78 0 -125 53q-55 59 -56 170z" />
<glyph unicode="&#xe59;" horiz-adv-x="966" d="M12 207q0 23 3 47.5t8 52.5q27 158 124 252q90 86 207 86h103q92 0 127 -72l8 -18q43 90 143 90h8l5 29q18 135 176 178l147 -121q-98 -53 -113 -143l-24 -137h-178q-53 0 -84 -54q-25 -43 -25 -96q0 -12 4 -29l74 -272h-266l-97 418h-8q-49 0 -71 -121q-6 -31 -7 -53 q0 -43 26 -57.5t89 -10.5l-31 -176l-92 -6q-256 -16 -256 213z" />
<glyph unicode="&#xe5a;" />
<glyph unicode="&#xe5b;" />
<glyph unicode="&#x2000;" horiz-adv-x="805" />
<glyph unicode="&#x2001;" horiz-adv-x="1610" />
<glyph unicode="&#x2002;" horiz-adv-x="805" />
<glyph unicode="&#x2003;" horiz-adv-x="1610" />
<glyph unicode="&#x2004;" horiz-adv-x="536" />
<glyph unicode="&#x2005;" horiz-adv-x="402" />
<glyph unicode="&#x2006;" horiz-adv-x="268" />
<glyph unicode="&#x2007;" horiz-adv-x="268" />
<glyph unicode="&#x2008;" horiz-adv-x="201" />
<glyph unicode="&#x2009;" horiz-adv-x="322" />
<glyph unicode="&#x200a;" horiz-adv-x="89" />
<glyph unicode="&#x200c;" horiz-adv-x="307" />
<glyph unicode="&#x200d;" horiz-adv-x="432" />
<glyph unicode="&#x200e;" horiz-adv-x="686" />
<glyph unicode="&#x200f;" horiz-adv-x="712" />
<glyph unicode="&#x2010;" horiz-adv-x="591" d="M43 260l37 201h473l-37 -201h-473z" />
<glyph unicode="&#x2011;" horiz-adv-x="591" d="M43 260l37 201h473l-37 -201h-473z" />
<glyph unicode="&#x2012;" horiz-adv-x="591" d="M43 260l37 201h473l-37 -201h-473z" />
<glyph unicode="&#x2013;" horiz-adv-x="942" d="M47 268l27 146h819l-27 -146h-819z" />
<glyph unicode="&#x2014;" horiz-adv-x="1884" d="M47 268l27 146h1761l-27 -146h-1761z" />
<glyph unicode="&#x2018;" horiz-adv-x="440" d="M94 453l39 221q20 121 82 184q78 82 258 107l-27 -148q-100 -8 -122 -80h108l-49 -284h-289z" />
<glyph unicode="&#x2019;" horiz-adv-x="440" d="M94 453l27 149q102 10 123 80h-109l49 283h289l-39 -222q-20 -123 -82 -184q-76 -82 -258 -106z" />
<glyph unicode="&#x201a;" />
<glyph unicode="&#x201c;" horiz-adv-x="763" d="M80 453l39 221q20 121 82 184q80 82 260 107l-27 -148q-100 -8 -123 -80h109l-49 -284h-291zM430 453l39 221q20 121 82 184q80 82 260 107l-27 -148q-100 -8 -122 -80h108l-49 -284h-291z" />
<glyph unicode="&#x201d;" horiz-adv-x="763" d="M80 453l26 149q102 10 123 80h-108l49 283h291l-39 -222q-20 -121 -82 -184q-80 -82 -260 -106zM430 453l27 149q104 10 125 80h-111l49 283h291l-39 -222q-20 -121 -82 -184q-80 -82 -260 -106z" />
<glyph unicode="&#x201e;" />
<glyph unicode="&#x2020;" />
<glyph unicode="&#x2021;" />
<glyph unicode="&#x2022;" horiz-adv-x="737" d="M68 356q0 143 110 250q115 111 256 111q55 0 102.5 -18.5t81 -52.5t53 -81t19.5 -102q0 -141 -110 -252q-113 -109 -254 -109q-55 0 -103.5 19.5t-82.5 53.5t-53 80t-19 101z" />
<glyph unicode="&#x2026;" horiz-adv-x="1363" d="M18 0l48 268h325l-47 -268h-326zM459 0l47 268h325l-47 -268h-325zM901 0l47 268h322l-47 -268h-322z" />
<glyph unicode="&#x202f;" horiz-adv-x="322" />
<glyph unicode="&#x2030;" />
<glyph unicode="&#x2032;" />
<glyph unicode="&#x2033;" />
<glyph unicode="&#x2039;" />
<glyph unicode="&#x203a;" />
<glyph unicode="&#x2044;" />
<glyph unicode="&#x205f;" horiz-adv-x="402" />
<glyph unicode="&#x20ac;" />
<glyph unicode="&#x2113;" />
<glyph unicode="&#x2122;" />
<glyph unicode="&#x2126;" />
<glyph unicode="&#x212e;" />
<glyph unicode="&#x2202;" />
<glyph unicode="&#x2206;" />
<glyph unicode="&#x220f;" />
<glyph unicode="&#x2211;" />
<glyph unicode="&#x2212;" horiz-adv-x="942" d="M47 268l27 146h819l-27 -146h-819z" />
<glyph unicode="&#x221a;" />
<glyph unicode="&#x221e;" />
<glyph unicode="&#x222b;" />
<glyph unicode="&#x2248;" />
<glyph unicode="&#x2260;" />
<glyph unicode="&#x2264;" />
<glyph unicode="&#x2265;" />
<glyph unicode="&#x25ca;" />
<glyph unicode="&#x25cc;" />
<glyph unicode="&#x25fc;" horiz-adv-x="706" d="M0 0v707h707v-707h-707z" />
<glyph unicode="&#xf700;" horiz-adv-x="870" d="M20 317l31 175h268q106 0 101 -111l-10 -176h10q29 0 59.5 60.5t46.5 158.5q8 39 9 80q0 119 -82 121q-70 4 -99 -62h-327q37 113 149 187q129 86 322 86q43 0 80 -7q33 20 40 72h312q-20 -123 -129 -188q70 -82 69 -207q0 -45 -8 -84q-35 -188 -127 -303 q-100 -119 -239 -119h-408l10 274q4 43 -45 43h-33z" />
<glyph unicode="&#xf701;" d="M-641 1063l29 164h727l-29 -164h-727z" />
<glyph unicode="&#xf702;" d="M-641 1065l29 164h399l18 102h328l-47 -266h-727z" />
<glyph unicode="&#xf703;" d="M-641 1065l29 164h383q41 115 200 114q160 0 160 -114q0 -78 -68 -125q-57 -39 -141 -39h-563z" />
<glyph unicode="&#xf704;" d="M-641 1065l29 164h399l18 102h123l-18 -102h61l19 102h143l-47 -266h-727z" />
<glyph unicode="&#xf705;" d="M-242 1065l39 225h328l-39 -225h-328z" />
<glyph unicode="&#xf706;" d="M-383 1167l27 144h270q115 0 100 -107l-4 -16h217l-20 -123h-545l8 53q2 29 0 37q-6 12 -32 12h-21z" />
<glyph unicode="&#xf707;" d="M-672 1065l19 106q27 150 194 150h78l76 -66l100 66h78q147 0 147 -96q0 -14 -2 -25l-2 -12h90l-20 -123h-334l17 96l-103 -71l-76 71l-16 -96h-246z" />
<glyph unicode="&#xf708;" d="M-309 1147l18 102h103l14 82h287l-15 -82h103l-19 -102h-102l-14 -82h-287l14 82h-102z" />
<glyph unicode="&#xf709;" d="M-633 999l10 58q31 168 246 168h213l-24 -144h-39q-63 0 -74 -59l-4 -23h-328z" />
<glyph unicode="&#xf70a;" d="M-268 922l41 225h327l-41 -225h-327z" />
<glyph unicode="&#xf70b;" d="M-426 1024l25 143h270q113 0 100 -106l-2 -17h217l-22 -122h-545l10 53q8 49 -33 49h-20z" />
<glyph unicode="&#xf70c;" d="M-657 922l20 106q27 150 193 150h77l78 -66l99 66h77q150 0 150 -97q0 -16 -2 -24l-2 -13h90l-23 -122h-333l18 96l-104 -72l-74 72l-19 -96h-245z" />
<glyph unicode="&#xf70d;" d="M-418 1004l19 102h102l14 82h287l-14 -82h102l-18 -102h-103l-14 -82h-287l15 82h-103z" />
<glyph unicode="&#xf70e;" d="M-330 922l11 57q31 168 247 168h213l-26 -143h-39q-63 0 -74 -60l-4 -22h-328z" />
<glyph unicode="&#xf70f;" horiz-adv-x="1351" d="M-20 0l71 408q10 53 76 88l-53 43l4 18q31 133 170 211q127 68 289 68q152 0 251 -58q113 -63 113 -178q0 -10 -1 -21.5t-3 -21.5l-51 -295q-12 -72 47 -72q61 0 74 72l98 557h328l-99 -557q-25 -137 -155 -211q-117 -68 -281 -67q-145 0 -242 55q-102 66 -102 176 q0 10 1 22.5t3 24.5l49 285q16 78 -69 78q-72 0 -92 -64l43 -51q-57 -33 -68 -92l-45 -254h78l-29 -164h-405z" />
<glyph unicode="&#xf710;" d="M-457 1065l45 256h328l-16 -92h419l-28 -164h-748z" />
<glyph unicode="&#xf711;" d="M-258 1174q0 86 76 131q63 39 153 38q176 0 176 -120q0 -84 -73 -131q-64 -39 -154 -39q-178 0 -178 121z" />
<glyph unicode="&#xf712;" d="M-668 1065l19 106q35 195 313 195h412l-21 -106h-327q-76 0 -84 -56l-2 -6l118 55l101 -55h141l-22 -133h-154l-88 59l-109 -59h-297z" />
<glyph unicode="&#xf713;" d="M-188 1372l32 184h328l-33 -184h-327z" />
<glyph unicode="&#xf714;" d="M-289 1475l23 127h243q94 0 95 -70q0 -4 -4 -25l-5 -16h195l-20 -119h-490l10 58q8 45 -28 45h-19z" />
<glyph unicode="&#xf715;" d="M-360 1372l16 96q23 133 176 134h70l69 -60l88 60h70q135 0 135 -84q0 -16 -2 -25l-2 -10h82l-20 -111h-302l17 86l-92 -63l-68 63l-16 -86h-221z" />
<glyph unicode="&#xf716;" d="M-233 1446l16 90h92l14 74h258l-14 -74h92l-16 -90h-92l-13 -74h-258l13 74h-92z" />
<glyph unicode="&#xf717;" d="M-207 1300l8 52q25 152 222 151h192l-22 -129h-35q-55 0 -66 -53l-4 -21h-295z" />
<glyph unicode="&#xf718;" d="M-596 -532l29 163h399l-51 -297h-328l23 134h-72z" />
<glyph unicode="&#xf719;" d="M-870 -535l28 166h305l-22 -127q-10 -41 35 -41q37 0 47 41l22 127h287l-22 -127q-35 -190 -340 -190q-279 0 -279 151h-61z" />
<glyph unicode="&#xf71a;" d="M-559 -539q0 80 65 127q57 43 144 43q160 0 160 -120q0 -82 -68 -127q-59 -43 -143 -43q-158 0 -158 120z" />
<glyph unicode="&#xf71b;" horiz-adv-x="942" d="M-61 0l28 164h82l43 244q10 53 76 88l-53 43l4 18q31 133 170 211q127 68 289 68q152 0 251 -58q113 -63 113 -178q0 -10 -1 -21.5t-3 -21.5l-125 -704q-33 -180 -233 -181h-136l-90 76l-110 -76h-281l31 174h266l127 82l98 -82l123 701q16 78 -69 78q-72 0 -93 -64 l43 -51q-57 -33 -67 -92l-74 -418h-409z" />
<glyph unicode="&#xf71c;" horiz-adv-x="942" d="M-119 -328l31 174h184l117 82l78 -82l106 82l88 -82l123 701q16 78 -69 78q-72 0 -93 -64l43 -51q-57 -33 -67 -92l-74 -418h-409l28 164h82l43 244q10 53 76 88l-53 43l4 18q31 133 170 211q127 68 289 68q152 0 251 -58q113 -63 113 -178q0 -10 -1 -21.5t-3 -21.5 l-125 -704q-33 -180 -233 -181h-136l-79 76l-105 -86l-80 86l-100 -76h-199z" />
<glyph unicode="&#xf71d;" horiz-adv-x="1163" d="M72 819h303l14 -454l141 249h195l55 -249l66 151q12 29 12 53q0 86 -98 86h-125l29 164h149q145 0 184 107l15 37h305l-23 -64q-45 -131 -211 -154q82 -51 82 -143q0 -39 -14 -70l-207 -532h-317l-52 317l-161 -317h-318z" />
<glyph horiz-adv-x="638" />
<glyph />
<glyph horiz-adv-x="602" d="M-258 1174q0 86 76 131q63 39 153 38q176 0 176 -120q0 -84 -73 -131q-64 -39 -154 -39q-178 0 -178 121zM45 608l37 209q86 6 190 6q322 0 322 -252q0 -35 -6 -71l-88 -500h-328l72 408q6 29 6 55q0 150 -141 149q-16 0 -32 -1t-32 -3z" />
</font>
</defs>
</svg>
